<svg preserveAspectRatio="none" overflow="visible" style="display: block;" width="9" height="15.4194" viewBox="0 0 9 15.4194" fill="none" xmlns="http://www.w3.org/2000/svg">
<path id="Drill-in" d="M9 7.70968C9 7.89606 8.96416 8.0681 8.89247 8.22581C8.82079 8.38351 8.70968 8.53763 8.55914 8.68817L2.11828 15.0645C1.88172 15.3011 1.59498 15.4194 1.25806 15.4194C0.90681 15.4194 0.609319 15.3011 0.365591 15.0645C0.121864 14.8208 0 14.5269 0 14.1828C0 13.8387 0.132616 13.5341 0.39785 13.2688L6.04301 7.70968L0.39785 2.15054C0.132616 1.8853 0 1.58065 0 1.23656C0 0.892473 0.121864 0.602151 0.365591 0.365591C0.609319 0.121864 0.90681 0 1.25806 0C1.59498 0 1.88172 0.11828 2.11828 0.354839L8.55914 6.73118C8.85305 7.01075 9 7.33692 9 7.70968Z" fill="#606060"/>
</svg>
