<svg width="40" height="40" viewBox="0 0 40 40" fill="none" xmlns="http://www.w3.org/2000/svg">
<path d="M40 20C40 31.0457 31.0457 40 20 40C8.9543 40 0 31.0457 0 20C0 8.9543 8.9543 0 20 0C31.0457 0 40 8.9543 40 20Z" fill="#C2D9FF"/>
<path fill-rule="evenodd" clip-rule="evenodd" d="M40 20C40 31.0457 31.0457 40 20 40C8.9543 40 0 31.0457 0 20C0 8.9543 8.9543 0 20 0C31.0457 0 40 8.9543 40 20ZM1.05604 20C1.05604 30.4455 9.55448 38.944 20 38.944C30.4468 38.944 38.944 30.4455 38.944 20C38.944 9.55448 30.4468 1.05604 20 1.05604C9.55448 1.05604 1.05604 9.55448 1.05604 20Z" fill="#264283"/>
<path d="M15.9344 22.9899L15.7126 27.9071L18.8781 25.2234L15.9344 22.9899Z" fill="#264283"/>
<path d="M28.3901 11.264L8.26074 18.9124C7.69312 19.1289 7.70764 19.938 8.2845 20.1321L13.4751 21.8864L25.2959 14.7872L15.9344 22.9899L23.2221 28.521C23.9798 29.0965 25.0794 28.7097 25.3104 27.7857L29.2495 12.027C29.3762 11.5188 28.8798 11.0779 28.3901 11.264Z" fill="#264283"/>
</svg>
